<?xml version="1.0" standalone="no"?>
<!DOCTYPE svg PUBLIC "-//W3C//DTD SVG 20010904//EN"
 "http://www.w3.org/TR/2001/REC-SVG-20010904/DTD/svg10.dtd">
<svg version="1.0" xmlns="http://www.w3.org/2000/svg"
 width="883.000000pt" height="883.000000pt" viewBox="0 0 883.000000 883.000000"
 preserveAspectRatio="xMidYMid meet">
<metadata>
Created by potrace 1.11, written by Peter Selinger 2001-2013
</metadata>
<g transform="translate(0.000000,883.000000) scale(0.100000,-0.100000)"
fill="#000000" stroke="none">
<path d="M3757 8813 c-1 -1 -198 -5 -437 -8 -239 -4 -514 -9 -610 -10 -96 -2
-227 -4 -289 -5 -100 -1 -121 -5 -163 -26 -27 -14 -52 -34 -56 -45 -4 -11 -8
-1962 -7 -4335 l0 -4316 30 -24 30 -23 1040 -2 c1316 -3 1505 -2 1970 5 209 4
529 9 710 12 587 9 556 8 601 31 22 12 45 27 51 35 6 8 11 109 13 263 3 279 3
1371 0 1480 -1 39 -1 338 -1 665 2 841 2 6125 1 6183 -1 55 -11 87 -33 105
-12 10 -321 13 -1432 15 -779 1 -1417 1 -1418 0z m1933 -958 c0 -48 1 -1127 0
-1185 l0 -75 -225 0 c-143 0 -225 4 -226 10 -1 14 -1 1183 0 1222 l1 33 163 2
c260 5 287 4 287 -7z m-2330 -1 c0 -5 -172 -399 -195 -449 l-24 -50 0 246 c0
136 2 249 5 251 4 5 214 6 214 2z m1265 -677 c0 -753 6 -695 -58 -547 -57 130
-266 608 -283 645 -35 78 -168 384 -182 420 -9 22 -29 65 -43 95 -16 34 -23
57 -17 61 6 4 139 6 297 5 l286 -1 0 -678z m-890 38 c4 -11 9 -24 11 -30 1 -5
26 -68 54 -140 70 -176 68 -165 34 -166 -81 -2 -306 0 -310 3 -3 4 115 314
153 401 l17 39 16 -44 c9 -24 20 -52 25 -63z m342 -890 c23 -61 43 -111 43
-112 0 -2 -193 -3 -429 -3 l-428 0 41 110 c24 64 47 110 56 112 8 2 163 3 344
3 l329 0 44 -110z m1263 -211 c0 -5 -34 -58 -161 -250 -36 -56 -70 -99 -75
-95 -11 7 -234 337 -234 345 0 3 106 6 235 6 129 0 235 -2 235 -6z m-1043
-166 c16 -24 32 -48 38 -54 5 -6 37 -51 70 -98 33 -48 122 -175 198 -283 76
-108 136 -201 134 -207 -8 -21 -422 -594 -431 -597 -6 -2 -9 28 -9 74 1 53 -2
77 -10 78 -7 0 -209 1 -449 1 -321 0 -438 3 -439 12 -1 6 -2 59 -3 118 l-1
107 360 0 c198 0 370 0 383 0 l22 1 -2 218 -3 217 -350 2 c-192 1 -364 2 -380
3 l-31 0 1 103 0 102 420 2 c231 1 427 2 436 2 13 1 15 18 14 121 0 66 0 120
2 120 1 0 15 -19 30 -42z m1393 -613 c0 -186 -1 -340 -3 -341 -2 -2 -36 44
-77 102 -41 58 -96 134 -122 170 -54 76 -57 62 34 185 34 47 85 118 113 157
27 39 51 69 53 68 1 -2 2 -155 2 -341z m-423 -723 c29 -45 53 -84 53 -85 0 -1
-44 -1 -98 -1 -125 2 -276 -19 -345 -47 -15 -7 -30 -9 -33 -7 -3 3 52 96 122
207 l126 201 61 -92 c33 -51 84 -130 114 -176z m-661 -263 c-152 -101 -268
-245 -338 -416 -7 -18 -16 -33 -20 -33 -5 0 -7 3 -6 8 1 4 -4 34 -11 67 -34
156 -145 306 -284 385 -31 18 -57 34 -57 36 0 2 178 4 396 4 l396 0 -76 -51z
m681 -323 c210 -25 356 -232 340 -480 -11 -185 -107 -329 -257 -388 -76 -30
-212 -30 -290 1 -83 31 -162 107 -205 194 -43 88 -54 145 -50 257 9 224 146
392 342 418 32 5 60 7 63 6 3 -1 29 -4 57 -8z m-1777 -32 c25 -10 55 -29 68
-41 74 -74 71 -229 -5 -299 -51 -48 -86 -56 -250 -58 -84 -2 -154 0 -154 3 -3
15 -5 397 -2 407 3 7 52 10 151 8 115 -1 157 -6 192 -20z m698 -491 c17 -266
147 -503 363 -662 42 -31 84 -61 94 -66 12 -7 -29 -10 -137 -10 l-153 0 -2
-490 c-1 -269 -2 -491 -2 -493 -1 -1 -16 14 -33 35 -124 145 -275 210 -638
277 -76 13 -202 50 -229 67 -64 39 -53 111 24 149 44 22 62 25 160 25 179 0
300 -30 472 -114 21 -10 36 -12 41 -6 7 8 76 171 179 422 2 6 -9 19 -26 27
-17 9 -49 44 -73 79 -23 34 -46 67 -50 72 -5 6 -71 102 -147 215 l-139 204 31
19 c104 62 207 171 242 254 8 18 16 33 18 33 1 0 4 -17 5 -37z m-876 -381 c12
-12 217 -316 215 -318 -1 -1 -27 -4 -57 -7 -103 -11 -201 -35 -277 -68 -24
-10 -44 -15 -44 -11 -1 4 -2 98 -3 209 l-2 202 31 3 c58 6 126 1 137 -10z
m2356 -924 l3 -103 -358 0 -358 0 0 100 -1 100 31 5 c16 3 176 4 355 3 l325
-1 3 -104z m-2378 -523 c47 -13 96 -26 110 -29 75 -15 221 -49 262 -61 118
-34 157 -73 133 -131 -21 -52 -71 -68 -210 -68 -138 -1 -183 5 -315 40 -157
43 -147 31 -148 178 l0 124 41 -14 c23 -8 80 -26 127 -39z m2376 -28 c7 -7 7
-217 0 -225 -4 -3 -525 -5 -696 -2 -13 0 -16 18 -15 113 0 78 4 114 12 117 17
7 692 4 699 -3z m-1313 -464 c-1 -54 -2 -123 -3 -153 l0 -55 -170 0 c-94 0
-170 3 -170 6 0 3 23 16 52 30 105 48 214 142 264 227 14 23 27 42 27 42 1 0
1 -44 0 -97z"/>
</g>
</svg>
